<?xml version="1.0" standalone="no"?>
<!DOCTYPE svg PUBLIC "-//W3C//DTD SVG 1.1//EN" "http://www.w3.org/Graphics/SVG/1.1/DTD/svg11.dtd" >
<svg xmlns="http://www.w3.org/2000/svg">
<metadata>Generated by IcoMoon</metadata>
<defs>
<font id="icomoon" horiz-adv-x="1024">
<font-face units-per-em="1024" ascent="960" descent="-64" />
<missing-glyph horiz-adv-x="1024" />
<glyph unicode="&#x20;" horiz-adv-x="512" d="" />
<glyph unicode="&#xe900;" glyph-name="home-page" d="M139.237 17.253c0 0-0.91-22.89 21.45-22.89 27.817 0 258.122 0.303 258.122 0.303l0.379 211.508c0 0-3.638 34.866 30.205 34.866h107.099c40.020 0 37.557-34.866 37.557-34.866l-0.455-210.826c0 0 218.367 0 252.665 0 28.385 0 27.097 28.499 27.097 28.499v389.931l-356.088 316.75-378.031-316.75c0 0 0-396.525 0-396.525zM0 443.263c0 0 32.099-59.159 102.097 0l418.317 353.89 392.205-351.692c81.026-58.438 111.382 0 111.382 0l-503.587 456.176-520.413-458.375zM903.106 797.987h-100.884l0.417-122.334 100.467-85.232z" />
<glyph unicode="&#xe901;" d="M73.564 675.162c24.304 26.516 49.772 50.376 77.814 72.528 3.298 2.604 8.046-0.514 6.942-4.568-15.718-57.77-43.18-114.862-85.514-157.304-1.902 29.712-1.93 59.672 0.758 89.344z" />
<glyph unicode="&#xe902;" d="M72.808 585.796c-24.442 29.496-45.446 59.992-64.37 92.916-2.164 3.764-7.92 2.422-8.14-1.916-3.414-67.442 22.354-146.354 85.134-178.182-6.256 28.68-10.764 57.866-12.624 87.182z" />
<glyph unicode="&#xe903;" d="M85.428 498.636c15.382 31.65 32.6 61.096 52.782 89.638 2.394 3.386 7.764 1.834 7.938-2.31 2.458-58.258-7.538-119.842-35.452-170.982-10.348 27.22-19.076 55.18-25.268 83.654z" />
<glyph unicode="&#xe904;" d="M110.702 414.962c-31.738 20.398-60.73 42.7-88.54 67.752-3.208 2.89-8.24-0.128-7.154-4.306 16.754-64.418 64.666-130.524 132.878-142.2-14.18 25.32-26.882 51.602-37.184 78.754z" />
<glyph unicode="&#xe905;" d="M147.874 336.226c5.56 34.528 13.512 67.466 24.582 100.396 1.316 3.916 6.878 3.992 8.258 0.096 19.36-54.656 27.202-116.318 15.522-172.986-17.756 22.98-34.182 47.13-48.362 72.494z" />
<glyph unicode="&#xe906;" d="M196.248 263.714c-36.178 10.25-70.358 23.068-104.208 38.78-3.91 1.816-7.83-2.536-5.576-6.21 34.804-56.758 99.964-105.898 168.594-97.43-21.068 20.184-40.976 41.746-58.81 64.86z" />
<glyph unicode="&#xe907;" d="M255.042 198.868c-4.936 34.788-7.034 68.718-6.064 103.596 0.114 4.134 5.418 5.828 7.874 2.5 34.664-46.996 60.524-104.084 66.712-161.962-24.104 16.94-47.248 35.456-68.522 55.866z" />
<glyph unicode="&#xe908;" d="M950.436 675.162c-24.304 26.516-49.772 50.376-77.814 72.528-3.298 2.604-8.046-0.514-6.942-4.568 15.718-57.77 43.18-114.862 85.514-157.304 1.902 29.712 1.93 59.672-0.758 89.344z" />
<glyph unicode="&#xe909;" d="M951.192 585.796c24.442 29.496 45.446 59.992 64.37 92.916 2.164 3.764 7.92 2.422 8.14-1.916 3.414-67.442-22.354-146.354-85.134-178.182 6.256 28.68 10.764 57.866 12.624 87.182z" />
<glyph unicode="&#xe90a;" d="M938.572 498.636c-15.382 31.65-32.6 61.096-52.782 89.638-2.394 3.386-7.764 1.834-7.938-2.31-2.458-58.258 7.538-119.842 35.452-170.982 10.348 27.22 19.076 55.18 25.268 83.654z" />
<glyph unicode="&#xe90b;" d="M913.298 414.962c31.738 20.398 60.73 42.7 88.54 67.752 3.208 2.89 8.24-0.128 7.154-4.306-16.754-64.418-64.666-130.524-132.878-142.2 14.18 25.32 26.882 51.602 37.184 78.754z" />
<glyph unicode="&#xe90c;" d="M876.126 336.226c-5.56 34.528-13.512 67.466-24.582 100.396-1.316 3.916-6.878 3.992-8.258 0.096-19.36-54.656-27.202-116.318-15.522-172.986 17.756 22.98 34.182 47.13 48.362 72.494z" />
<glyph unicode="&#xe90d;" d="M827.752 263.714c36.178 10.25 70.358 23.068 104.208 38.78 3.91 1.816 7.83-2.536 5.576-6.21-34.804-56.758-99.964-105.898-168.594-97.43 21.068 20.184 40.976 41.746 58.81 64.86z" />
<glyph unicode="&#xe90e;" d="M768.958 198.868c4.936 34.788 7.034 68.718 6.064 103.596-0.114 4.134-5.418 5.828-7.874 2.5-34.664-46.996-60.524-104.084-66.712-161.962 24.104 16.94 47.248 35.456 68.522 55.866z" />
<glyph unicode="&#xe90f;" d="M408.206 111.258c-27.698 13.658-53.016 28.518-75.254 44.162-0.006 0.004-0.010 0.006-0.016 0.010-0.004 0.002-0.006 0.006-0.010 0.008-24.818 17.44-47.194 35.678-66.514 54.212-0.004 0.004-0.008 0.010-0.012 0.014-21.686 20.772-40.902 41.96-57.118 62.978-0.004 0.006-0.010 0.012-0.014 0.018-0.002 0.002-0.002 0.004-0.004 0.006-18.292 23.676-34.098 47.362-46.978 70.406-0.006 0.012-0.014 0.022-0.020 0.034-14.608 26.094-26.754 51.812-36.098 76.444-0.004 0.010-0.008 0.018-0.012 0.026v0.002c-10.672 28.082-18.93 55.414-24.548 81.238 0 0.004-0.002 0.006-0.002 0.008-6.45 29.57-10.576 58.044-12.262 84.626 0 0.014-0.004 0.026-0.004 0.038-1.96 30.614-1.716 59.794 0.726 86.728 0.030 0.326 0.030 0.65 0.038 0.974 3.224 41.65 10.934 83.4 22.954 124.114 2.416 8.186-2.262 16.78-10.448 19.196-8.182 2.418-16.78-2.258-19.196-10.448-12.762-43.23-20.92-87.588-24.246-131.842-0.022-0.302-0.016-0.598-0.022-0.896-2.444-28.044-2.674-58.24-0.652-89.806 0-0.006 0-0.010 0-0.016 1.784-28.11 6.122-58.11 12.896-89.172 0.006-0.024 0.008-0.050 0.012-0.074 5.942-27.32 14.642-56.138 25.86-85.648v0c0.002-0.004 0.002-0.008 0.004-0.012 9.886-26.056 22.682-53.17 38.034-80.588 0.002-0.004 0.004-0.008 0.006-0.012 0.006-0.010 0.010-0.018 0.016-0.026 0 0 0 0 0.002-0.002v0c13.622-24.36 30.268-49.32 49.48-74.188 0.008-0.010 0.016-0.016 0.022-0.026 17.142-22.214 37.38-44.542 60.154-66.36 0.006-0.006 0.010-0.012 0.016-0.018 20.45-19.622 44.056-38.872 70.164-57.218 0.004-0.002 0.006-0.004 0.010-0.006v0c23.536-16.562 50.24-32.242 79.366-46.606 2.2-1.084 4.53-1.598 6.824-1.598 5.698 0 11.182 3.166 13.872 8.622 3.774 7.656 0.628 16.922-7.026 20.698z" />
<glyph unicode="&#xe910;" d="M964.854 673.314c-0.006 0.298 0 0.592-0.022 0.892-3.326 44.262-11.484 88.622-24.246 131.844-2.416 8.184-11.008 12.852-19.198 10.446-8.186-2.416-12.862-11.012-10.446-19.198 12.018-40.704 19.728-82.452 22.954-124.106 0.010-0.326 0.010-0.652 0.040-0.98 2.442-26.924 2.686-56.106 0.726-86.732 0-0.006 0-0.012 0-0.016 0-0.006-0.002-0.010-0.002-0.016-1.686-26.57-5.812-55.042-12.264-84.626 0-0.002-0.002-0.006-0.002-0.008-5.614-25.824-13.874-53.156-24.548-81.236-0.002-0.004-0.002-0.006-0.004-0.010-0.002-0.008-0.006-0.014-0.010-0.020-9.342-24.63-21.492-50.356-36.112-76.47-0.002-0.002-0.004-0.006-0.006-0.008-12.878-23.038-28.684-46.724-46.98-70.406-0.004-0.006-0.008-0.012-0.012-0.018-0.002-0.002-0.002-0.002-0.004-0.004-16.21-21.010-35.43-42.198-57.118-62.978-0.004-0.004-0.008-0.010-0.012-0.014-19.312-18.528-41.692-36.768-66.516-54.212-0.006-0.004-0.012-0.010-0.020-0.016-0.002 0-0.004-0.002-0.006-0.002-22.238-15.648-47.556-30.506-75.254-44.162-7.656-3.774-10.802-13.040-7.026-20.694 2.69-5.46 8.172-8.624 13.872-8.624 2.294 0 4.624 0.514 6.822 1.598 29.122 14.36 55.822 30.038 79.358 46.598 0.008 0.006 0.016 0.008 0.024 0.014 26.112 18.352 49.718 37.602 70.162 57.218 0.006 0.006 0.010 0.012 0.016 0.018 22.784 21.832 43.028 44.164 60.166 66.376 0.002 0 0.002 0.002 0.004 0.004s0.004 0.004 0.006 0.006c19.222 24.884 35.878 49.854 49.498 74.216 0.010 0.016 0.016 0.032 0.024 0.048 15.348 27.416 28.138 54.518 38.012 80.55 0 0.002 0.002 0.002 0.002 0.006 0 0.002 0.002 0.002 0.002 0.006 11.212 29.494 19.906 58.294 25.848 85.602 0.002 0.006 0.004 0.010 0.006 0.016 6.786 31.114 11.132 61.15 12.916 89.278 0.002 0.022 0 0.042 0 0.062 2.022 31.56 1.792 61.74-0.65 89.758z" />
<glyph unicode="&#xe911;" d="M424.184 367.976c-44.552-0.002-87.976 15.784-122.53 45.188-42.628 36.276-67.078 89.176-67.078 145.134v52.256c0 6.040 2.356 11.72 6.632 15.986 4.262 4.25 9.922 6.59 15.938 6.59 0.020 0 0.040 0 0.060 0l136.816-0.3c8.534-0.018 15.438-6.952 15.42-15.488-0.020-8.522-6.936-15.42-15.452-15.42-0.012 0-0.024 0-0.036 0l-128.47 0.282-0.002-43.904c0-46.88 20.484-91.2 56.2-121.594 35.442-30.16 82.036-43.206 127.81-35.78 1.588 0.258 3.186 0.528 4.8 0.81 8.416 1.458 16.416-4.15 17.888-12.556 1.472-8.408-4.15-16.416-12.556-17.888-1.742-0.304-3.472-0.598-5.186-0.876-10.078-1.636-20.198-2.44-30.254-2.44z" />
<glyph unicode="&#xe912;" d="M599.816 367.976c-10.060 0-20.172 0.804-30.256 2.438-1.714 0.278-3.444 0.572-5.186 0.876-8.408 1.472-14.028 9.482-12.556 17.888 1.472 8.408 9.49 14.018 17.888 12.556 1.612-0.284 3.212-0.554 4.8-0.81 45.784-7.42 92.368 5.62 127.81 35.78 35.716 30.392 56.2 74.712 56.2 121.594v43.904l-128.47-0.282c-0.012 0-0.024 0-0.036 0-8.518 0-15.434 6.896-15.452 15.42-0.020 8.536 6.884 15.47 15.42 15.488l136.822 0.3c0.020 0 0.040 0 0.060 0 6.012 0 11.67-2.338 15.934-6.59 4.276-4.268 6.632-9.944 6.632-15.986v-52.256c0-55.958-24.448-108.858-67.078-145.134-34.554-29.4-77.982-45.186-122.532-45.186z" />
<glyph unicode="&#xe913;" d="M410.39 144.014h203.218c-84.178 106.748-75.394 260.592-75.394 260.592h-52.428c0-0.002 8.784-153.846-75.396-260.592z" />
<glyph unicode="&#xe914;" d="M538.214 404.604h-52.428c0 0 1.36-23.886-2.138-59.362-6.668-67.622 10.106-135.838 49.682-191.072 2.456-3.428 5-6.816 7.634-10.156h72.646c-84.18 106.746-75.396 260.59-75.396 260.59z" />
<glyph unicode="&#xe915;" d="M358.706 677.414v-134.822c0-79.764 37.91-154.78 102.128-202.092v0c30.428-22.416 71.904-22.416 102.332 0v0c64.218 47.31 102.128 122.328 102.128 202.092v134.822h-306.588z" />
<glyph unicode="&#xe916;" d="M592.304 677.414v-134.822c0-79.764-37.91-154.78-102.128-202.092v0c-4.658-3.432-9.576-6.332-14.672-8.712 28.196-13.174 61.89-10.274 87.66 8.712v0c64.218 47.31 102.128 122.328 102.128 202.092v134.822h-72.988z" />
<glyph unicode="&#xe917;" d="M676.276 656.354h-328.552c-4.952 0-8.966 4.014-8.966 8.966v37.156c0 4.952 4.014 8.966 8.966 8.966h328.552c4.952 0 8.966-4.014 8.966-8.966v-37.156c-0.002-4.952-4.016-8.966-8.966-8.966z" />
<glyph unicode="&#xe918;" d="M676.276 711.44h-64.024v-55.086h64.024c4.952 0 8.964 4.014 8.964 8.966v37.156c0 4.95-4.014 8.964-8.964 8.964z" />
<glyph unicode="&#xe919;" d="M686.328 78.862h-347.28c-5.034 0-8.528 5.014-6.784 9.736l25.79 69.88c1.048 2.842 3.756 4.728 6.784 4.728h295.7c3.028 0 5.736-1.886 6.784-4.728l25.79-69.88c1.744-4.722-1.75-9.736-6.784-9.736z" />
<glyph unicode="&#xe91a;" d="M693.114 88.598l-25.79 69.88c-1.050 2.842-3.756 4.728-6.786 4.728h-70.532l31.128-84.344h65.194c5.034 0 8.528 5.014 6.786 9.736z" />
<glyph unicode="&#xe91b;" glyph-name="trophy-shape" d="M788.832 960l1.088-23.2c0.672-13.312-2.688-23.488-10.144-31.2-10.048-10.304-26.368-15.488-40.064-17.824 0.512 11.872 0.992 23.84 1.376 36.224-19.808 0-124.512 0-228.96 0-0.096 0-0.16 0-0.256 0-104.48 0-209.12 0-228.928 0 0.384-12.384 0.896-24.352 1.408-36.224-13.728 2.336-30.016 7.552-40.096 17.856-7.52 7.68-10.88 17.888-10.208 31.2l1.12 23.168h-121.312l0.416-22.528c6.72-387.552 170.784-481.376 245.888-504l-12.32-17.504 36.16-25.504 12.352 17.632c24.704-46.016 46.24-75.392 55.424-98.88h-16.768v-35.104h20.48c-8.288-54.208-117.888-116.992-117.888-116.992v-33.088h-26.88v-188.032h402.496v188.032h-26.816v33.088c0 0-109.632 62.784-117.92 116.992h20.48v35.104h-16.736c9.184 23.456 30.72 52.768 55.424 98.88l12.32-17.632 36.224 25.504-12.352 17.504c75.136 22.624 239.2 116.448 245.92 504l0.384 22.528h-121.312zM159.072 915.744h32.352c3.040-15.904 10.24-29.888 21.312-41.184 22.144-22.56 53.92-29.376 74.144-31.488 11.808-170.56 43.264-284.448 75.936-363.936-64.288 23.552-192.48 111.168-203.744 436.608zM661.152 479.136c32.672 79.488 64.128 193.376 75.936 363.936 20.256 2.112 52 8.928 74.112 31.488 11.136 11.296 18.304 25.28 21.344 41.184h32.352c-11.2-325.44-139.424-413.056-203.744-436.608z" />
<glyph unicode="&#xe91c;" glyph-name="group" d="M760.908 274.847c-68.505 56.317-142.263 93.511-157.393 100.866-1.681 0.841-2.732 2.522-2.732 4.413v106.54c13.449 9.036 22.275 24.166 22.275 41.397v110.532c0 55.056-44.549 99.605-99.605 99.605h-23.746c-55.056 0-99.605-44.549-99.605-99.605v-110.532c0-17.231 8.826-32.571 22.275-41.397v-106.54c0-1.891-1.051-3.572-2.732-4.413-15.13-7.355-88.888-44.759-157.393-100.866-12.398-10.087-19.543-25.427-19.543-41.397v-75.649h537.742v75.649c0 15.97-7.145 31.31-19.543 41.397zM1006.979 349.446c-57.368 47.281-119.358 78.591-131.966 84.685-1.471 0.63-2.312 2.101-2.312 3.782v89.308c11.137 7.565 18.702 20.173 18.702 34.883v92.671c0 46.020-37.404 83.425-83.425 83.425h-19.753c-46.020 0-83.425-37.404-83.425-83.425v-92.671c0-14.499 7.355-27.318 18.702-34.883v-89.308c0-1.681-0.841-2.942-2.312-3.782-7.775-3.782-34.673-17.231-67.454-38.245 32.781-18.072 84.685-49.172 133.647-89.519 17.231-14.079 28.579-33.622 32.781-55.056h203.833v63.462c-0.63 13.449-6.514 26.267-17.021 34.673zM302.598 434.131c-1.471 0.63-2.312 2.101-2.312 3.782v89.308c11.137 7.565 18.702 20.173 18.702 34.883v92.671c0 46.020-37.404 83.425-83.425 83.425h-20.173c-46.020 0-83.425-37.404-83.425-83.425v-92.671c0-14.499 7.355-27.318 18.702-34.883v-89.308c0-1.681-0.841-2.942-2.312-3.782-12.608-6.094-74.599-37.404-131.966-84.685-10.297-8.616-16.391-21.224-16.391-34.673v-63.462h203.833c3.993 21.434 15.55 40.977 32.781 55.056 48.962 40.346 100.866 71.447 133.647 89.519-32.992 21.014-59.889 34.463-67.664 38.245z" />
<glyph unicode="&#xe91d;" glyph-name="favorite-heart-button" d="M512-23.040l-71.68 71.68c-266.24 235.52-440.32 394.24-440.32 588.8 0 158.72 122.88 281.6 281.6 281.6 87.040 0 174.080-40.96 230.4-107.52 56.32 66.56 143.36 107.52 230.4 107.52 158.72 0 281.6-122.88 281.6-281.6 0-194.56-174.080-353.28-440.32-588.8l-71.68-71.68z" />
<glyph unicode="&#xe91e;" glyph-name="edit" d="M945.112 316.73c-14.086 0-25.503-11.417-25.503-25.503v-226.438c-0.050-42.239-34.27-76.469-76.509-76.509h-715.586c-42.239 0.040-76.459 34.27-76.509 76.509v664.58c0.050 42.229 34.27 76.459 76.509 76.509h226.438c14.086 0 25.503 11.417 25.503 25.503 0 14.076-11.417 25.503-25.503 25.503h-226.438c-70.392-0.080-127.435-57.123-127.515-127.515v-664.59c0.080-70.392 57.123-127.435 127.515-127.515h715.586c70.392 0.080 127.435 57.123 127.515 127.515v226.448c0 14.086-11.417 25.503-25.503 25.503zM960.513 922.503c-44.819 44.819-117.483 44.819-162.302 0l-454.988-454.988c-3.118-3.118-5.37-6.983-6.545-11.227l-59.832-216.008c-2.461-8.856 0.040-18.34 6.535-24.845 6.505-6.495 15.989-8.996 24.845-6.545l216.008 59.842c4.244 1.176 8.109 3.427 11.227 6.545l454.978 454.998c44.75 44.849 44.75 117.453 0 162.302zM398.792 450.939l372.372 372.382 120.093-120.093-372.382-372.382zM374.803 402.802l95.945-95.955-132.715-36.77zM954.376 766.338l-27.047-27.047-120.103 120.103 27.057 27.047c24.895 24.895 65.262 24.895 90.157 0l29.936-29.926c24.855-24.925 24.855-65.262 0-90.177z" />
<glyph unicode="&#xe91f;" glyph-name="pencil" d="M511.986 960c-282.757 0-511.983-229.243-511.983-511.99s229.226-512.010 511.983-512.010 512.010 229.25 512.010 512.010-229.253 511.99-512.010 511.99zM755.377 591.548l-48.63-48.63-98.99 98.983-37.553-37.553 98.99-98.99-242.797-242.777-98.983 98.973-37.553-37.553 98.983-98.983-24.194-24.194-0.461 0.461c-2.683-4.417-7.045-7.639-12.227-8.789l-92.307-20.582c-1.382-0.311-2.789-0.461-4.178-0.461-5.038 0-9.933 1.983-13.561 5.622-4.656 4.639-6.595 11.339-5.161 17.76l20.572 92.279c1.161 5.178 4.39 9.551 8.8 12.227l-0.468 0.468 390.724 390.741c5.728 5.717 15.032 5.717 20.76-0.017l78.24-78.223c5.728-5.728 5.728-15.032-0.007-20.76z" />
</font>
</defs>
</svg>
